<?xml version="1.0" encoding="iso-8859-1"?>
<!-- Generator: Adobe Illustrator 19.0.0, SVG Export Plug-In . SVG Version: 6.00 Build 0)  -->
<svg xmlns="http://www.w3.org/2000/svg" xmlns:xlink="http://www.w3.org/1999/xlink" version="1.1" id="Layer_1" x="0px" y="0px" viewBox="0 0 460 460" style="enable-background:new 0 0 460 460;" xml:space="preserve" width="512" height="512">
<g id="XMLID_1514_">
	<rect id="XMLID_1734_" y="76.667" style="fill:#F0F0F0;" width="460" height="306.667"/>
	<path id="XMLID_1516_" style="fill:#F0F0F0;" d="M0.099,236.559c-0.013-0.442-0.023-0.884-0.033-1.327   C0.076,235.675,0.086,236.118,0.099,236.559z"/>
	<path id="XMLID_1517_" style="fill:#F0F0F0;" d="M0.36,242.801c-0.024-0.426-0.052-0.85-0.073-1.277   C0.308,241.951,0.337,242.375,0.36,242.801z"/>
	<path id="XMLID_1518_" style="fill:#F0F0F0;" d="M0.066,224.767c0.01-0.442,0.02-0.885,0.033-1.327   C0.086,223.882,0.076,224.325,0.066,224.767z"/>
	<path id="XMLID_1519_" style="fill:#F0F0F0;" d="M401.416,383.333c0.489-0.546,0.976-1.094,1.46-1.646   c-0.485,0.554-0.983,1.096-1.473,1.646H401.416z"/>
	<path id="XMLID_1520_" style="fill:#F0F0F0;" d="M0.287,218.476c0.021-0.426,0.049-0.851,0.073-1.277   C0.337,217.625,0.308,218.049,0.287,218.476z"/>
	<path id="XMLID_1521_" style="fill:#F0F0F0;" d="M1.359,255.016c-0.081-0.744-0.163-1.487-0.237-2.232   C1.196,253.53,1.279,254.273,1.359,255.016z"/>
	<path id="XMLID_1522_" style="fill:#F0F0F0;" d="M0.737,248.444c-0.05-0.627-0.094-1.256-0.138-1.884   C0.643,247.188,0.687,247.817,0.737,248.444z"/>
	<path id="XMLID_1523_" style="fill:#F0F0F0;" d="M458.64,204.976c0.081,0.747,0.164,1.494,0.238,2.243   C458.804,206.47,458.721,205.724,458.64,204.976z"/>
	<path id="XMLID_1524_" style="fill:#F0F0F0;" d="M459.64,217.199c0.023,0.426,0.052,0.85,0.073,1.277   C459.692,218.049,459.663,217.625,459.64,217.199z"/>
	<path id="XMLID_1526_" style="fill:#F0F0F0;" d="M459.263,211.552c0.05,0.629,0.094,1.26,0.139,1.891   C459.357,212.812,459.313,212.181,459.263,211.552z"/>
	<path id="XMLID_1527_" style="fill:#F0F0F0;" d="M458.878,252.78c-0.074,0.749-0.157,1.496-0.238,2.243   C458.721,254.276,458.804,253.53,458.878,252.78z"/>
	<path id="XMLID_1528_" style="fill:#F0F0F0;" d="M0.599,213.441c0.045-0.629,0.089-1.258,0.138-1.885   C0.687,212.183,0.643,212.812,0.599,213.441z"/>
	<path id="XMLID_1529_" style="fill:#F0F0F0;" d="M1.122,207.216c0.074-0.746,0.156-1.489,0.237-2.232   C1.279,205.727,1.196,206.47,1.122,207.216z"/>
	<path id="XMLID_1530_" style="fill:#F0F0F0;" d="M459.934,224.767c-0.01-0.443-0.02-0.885-0.033-1.327   C459.914,223.882,459.924,224.325,459.934,224.767z"/>
	<path id="XMLID_1532_" style="fill:#F0F0F0;" d="M459.934,235.233c-0.01,0.442-0.02,0.885-0.033,1.327   C459.914,236.118,459.924,235.675,459.934,235.233z"/>
	<path id="XMLID_1533_" style="fill:#F0F0F0;" d="M260,260L260,260v123.333h30v-50.906l50.906,50.906h42.426L290,290.001v0h28.284   l87.869,87.869c-1.073,1.277-2.159,2.542-3.257,3.796c3.311-3.771,6.497-7.653,9.559-11.636L332.426,290h119.651   c2.829-10.496,4.936-21.286,6.259-32.32c-0.093,0.773-0.183,1.548-0.283,2.319H260z"/>
	<path id="XMLID_1534_" style="fill:#F0F0F0;" d="M459.713,241.524c-0.021,0.426-0.049,0.851-0.073,1.277   C459.663,242.375,459.692,241.951,459.713,241.524z"/>
	<path id="XMLID_1535_" style="fill:#F0F0F0;" d="M459.401,246.557c-0.045,0.63-0.089,1.261-0.139,1.89   C459.313,247.819,459.357,247.188,459.401,246.557z"/>
	<polygon id="XMLID_1536_" style="fill:#0052B4;" points="47.545,89.971 34.241,76.667 0,76.667 0,170 7.923,170 127.575,170  "/>
	<polygon id="XMLID_1537_" style="fill:#0052B4;" points="452.077,170 460,170 460,76.667 425.76,76.667 412.455,89.972    332.427,170  "/>
	<polygon id="XMLID_1538_" style="fill:#0052B4;" points="7.923,290 0,290 0,383.333 34.24,383.333 47.545,370.028 127.572,290  "/>
	<polygon id="XMLID_1539_" style="fill:#0052B4;" points="340.908,76.667 290,76.667 290,127.574  "/>
	<polygon id="XMLID_1540_" style="fill:#0052B4;" points="119.092,383.333 170,383.333 170,332.426  "/>
	<polygon id="XMLID_1541_" style="fill:#0052B4;" points="170,76.667 119.094,76.667 170,127.573  "/>
	<polygon id="XMLID_1542_" style="fill:#0052B4;" points="290,383.333 340.906,383.333 290,332.427  "/>
	<polygon id="XMLID_1543_" style="fill:#0052B4;" points="412.455,370.029 425.759,383.333 460,383.333 460,290 452.077,290    332.426,290  "/>
	<path id="XMLID_1544_" style="fill:#D80027;" d="M459.713,218.476c-0.021-0.426-0.049-0.851-0.073-1.277   c-0.069-1.255-0.149-2.507-0.238-3.756c-0.045-0.631-0.089-1.262-0.139-1.891c-0.115-1.448-0.243-2.892-0.385-4.332   c-0.074-0.749-0.157-1.496-0.238-2.243c-0.096-0.887-0.198-1.773-0.304-2.657c-0.093-0.773-0.183-1.548-0.283-2.319H260.001H260   V76.667h-60v123.332V200H1.947c-0.1,0.769-0.19,1.54-0.282,2.311c-0.107,0.889-0.209,1.78-0.305,2.672   c-0.081,0.744-0.163,1.487-0.237,2.232c-0.142,1.442-0.27,2.889-0.385,4.339c-0.05,0.627-0.094,1.256-0.138,1.885   c-0.089,1.25-0.169,2.503-0.238,3.758c-0.024,0.426-0.052,0.85-0.073,1.277c-0.082,1.65-0.142,3.306-0.189,4.965   c-0.013,0.442-0.023,0.884-0.033,1.327C0.027,226.507,0,228.25,0,230s0.027,3.493,0.066,5.233c0.01,0.442,0.02,0.885,0.033,1.327   c0.047,1.659,0.107,3.315,0.189,4.965c0.021,0.426,0.049,0.851,0.073,1.277c0.069,1.256,0.149,2.509,0.238,3.759   c0.045,0.628,0.088,1.257,0.138,1.884c0.116,1.45,0.243,2.897,0.385,4.34c0.074,0.746,0.156,1.489,0.237,2.232   c0.097,0.892,0.199,1.783,0.305,2.672c0.093,0.771,0.182,1.543,0.282,2.311h198.052H200v123.333h60V260.001V260h198.053   c0.1-0.771,0.19-1.546,0.283-2.319c0.106-0.884,0.208-1.77,0.304-2.657c0.081-0.747,0.164-1.494,0.238-2.243   c0.142-1.44,0.269-2.885,0.385-4.333c0.05-0.629,0.094-1.26,0.139-1.89c0.089-1.249,0.169-2.502,0.238-3.756   c0.023-0.426,0.052-0.85,0.073-1.277c0.082-1.65,0.142-3.306,0.189-4.965c0.013-0.442,0.023-0.884,0.033-1.327   c0.039-1.74,0.066-3.483,0.066-5.233s-0.027-3.493-0.066-5.233c-0.01-0.442-0.02-0.885-0.033-1.327   C459.854,221.781,459.795,220.126,459.713,218.476z"/>
	<path id="XMLID_1545_" style="fill:#D80027;" d="M318.284,290H290v0l93.332,93.332h18.07c0.49-0.549,0.988-1.092,1.473-1.646   c0.007-0.008,0.014-0.015,0.02-0.023c1.099-1.254,2.184-2.519,3.257-3.796L318.284,290z"/>
	<polygon id="XMLID_1546_" style="fill:#D80027;" points="170,290 169.998,290 76.666,383.333 104.951,383.333 170,318.283  "/>
	<polygon id="XMLID_1547_" style="fill:#D80027;" points="170,170 170,169.999 76.668,76.667 48.383,76.667 53.847,82.131    141.717,170  "/>
	<polygon id="XMLID_1548_" style="fill:#D80027;" points="290,170 290,170 383.334,76.667 355.05,76.667 290,141.717  "/>
</g>















</svg>
