<?xml version="1.0" encoding="utf-8"?>
<!-- Generator: Adobe Illustrator 16.0.0, SVG Export Plug-In . SVG Version: 6.00 Build 0)  -->
<!DOCTYPE svg PUBLIC "-//W3C//DTD SVG 1.1//EN" "http://www.w3.org/Graphics/SVG/1.1/DTD/svg11.dtd">
<svg version="1.1" id="Layer_1" xmlns="http://www.w3.org/2000/svg" xmlns:xlink="http://www.w3.org/1999/xlink" x="0px" y="0px"
	 width="353px" height="61px" viewBox="0 0 353 61" enable-background="new 0 0 353 61" xml:space="preserve">
<g>
	<rect x="1.29" y="0.783" fill="#52B3D1" width="59.834" height="59.834"/>
	<rect x="4.254" y="3.899" fill="#0F6B87" width="53.601" height="53.601"/>
	<path fill="#37A8DB" d="M42.09,40.769l-0.044,0.152c0.006-0.029,0.015-0.055,0.022-0.082C42.077,40.813,42.083,40.791,42.09,40.769
		"/>
	<path fill="#37A8DB" d="M41.958,41.214l-0.026,0.084v-0.002C41.942,41.266,41.948,41.24,41.958,41.214"/>
	<path fill="#D4ECF9" d="M40.382,42.85l0.026-0.084c-0.012,0.044-0.026,0.093-0.042,0.143L40.382,42.85z"/>
	<polygon fill="#D4ECF9" points="40.331,43.025 40.328,43.038 40.328,43.029 	"/>
	<path fill="#D4ECF9" d="M40.447,42.643l0.058-0.192C40.489,42.499,40.47,42.566,40.447,42.643"/>
	<path fill="#D4ECF9" d="M40.266,43.243c-0.219,0.845-0.296,2.508-1.252,2.362c-1.917-1.545,0.151-6.701-1.782-9.503
		c0.297-0.846,1.811-2.912,0.663-3.583c-1.344-0.787-2.483,3.636-2.764,4.446c-0.781,2.27-1.208,4.515-1.551,6.864
		c-0.231,1.591-0.37,4.552-1.754,5.651c-1.644,1.306-2.86-3.646-3.173-4.461c-1.469-3.806-2.605-7.76-4.116-11.545
		c-0.268-0.678-0.83-3.047-1.995-2.373c-1.155,0.67,0.377,2.624,0.658,3.405c1.185,3.274,0.546,7.318,0.22,10.722
		c-2.14-2.98-2.954-6.703-4.005-10.153c-1.119-3.663-2.166-7.469-3.066-11.191c-0.72-2.97-0.861-6.518,1.671-8.692
		c2.67-2.292,5.269-1.737,7.58,0.542c-0.665,0-2.26-0.407-2.512,0.54c-0.418,1.548,2.382,1.074,3.099,1.042
		c2.688-0.124,5.2-1.961,7.837-0.63c1.923,0.97,3.834,2.755,6.127,1.658c0.823-0.397,1.104-1.282,0.484-2.027
		c-0.74-0.885-2.222-0.663-3.216-0.536c1.547-3.031,5.036-1.729,6.347,0.685c1.423,2.625,1.226,6.021-0.449,8.477
		c-1.588,2.324-3.483,3.458-5.836,4.884c-0.404,0.297-0.813,0.664-0.584,1.101c0.514,0.878,2.518-0.568,3.035-0.888
		c1.83-1.127,2.285-1.392,3.763-2.974c-0.846,5.179-1.83,10.747-3.312,15.782c-0.006,0.022-0.013,0.043-0.02,0.066
		c-0.009,0.035-0.019,0.07-0.032,0.109l-0.003,0.004v0.009c-0.009,0.033-0.023,0.07-0.033,0.107l-0.022,0.073
		c0,0.008-0.003,0.01-0.003,0.016C40.27,43.235,40.27,43.238,40.266,43.243"/>
	<path fill="#37A8DB" d="M29.621,10.415c0.022,0.004,0.041,0.004,0.064,0.004c-1.291-0.042-2.75-0.052-3.877,0.651
		c-1.891,1.181-0.658,2.095,0.475,3.215c1.658,1.647,2.714,0.52,4.751,0.32c1.701-0.167,3.221,0.291,4.625,1.223
		c-0.013,0.039,0.678-1.637,0.781-1.488c-0.581-0.788-1.278-1.492-2.049-2.089c-1.288-1.001-2.858-1.762-4.51-1.827h-0.019
		c-0.054-0.002-0.106-0.002-0.158-0.006h-0.019C29.662,10.418,29.64,10.415,29.621,10.415 M30.304,10.441
		c0.04,0,0.075,0.002,0.107,0.002C30.379,10.443,30.344,10.441,30.304,10.441 M40.408,42.766l-0.025,0.084
		c1.481-5.036,2.466-10.604,3.312-15.782c-1.479,1.582-1.934,1.847-3.763,2.974c-0.517,0.319-2.521,1.766-3.034,0.889
		c-0.229-0.437,0.18-0.806,0.584-1.103c2.353-1.427,4.248-2.561,5.836-4.885c1.675-2.455,1.872-5.852,0.449-8.477
		c-1.312-2.413-4.8-3.715-6.347-0.684c0.994-0.125,2.476-0.348,3.216,0.537c0.62,0.745,0.339,1.629-0.484,2.027
		c-2.292,1.098-4.204-0.687-6.127-1.659c-2.637-1.331-5.148,0.506-7.837,0.63c-0.717,0.031-3.518,0.505-3.099-1.043
		c0.251-0.946,1.847-0.539,2.512-0.539c-2.312-2.28-4.91-2.834-7.58-0.542c-2.533,2.175-2.391,5.723-1.671,8.693
		c0.9,3.722,1.947,7.528,3.066,11.191c1.052,3.45,1.866,7.173,4.006,10.153c0.326-3.403,0.965-7.445-0.22-10.72
		c-0.28-0.783-1.813-2.737-0.658-3.407c1.165-0.674,1.727,1.695,1.995,2.373c1.51,3.785,2.647,7.738,4.116,11.545
		c0.313,0.814,1.529,5.766,3.173,4.462c1.385-1.101,1.523-4.062,1.754-5.652c0.343-2.35,0.77-4.596,1.551-6.863
		c0.28-0.812,1.419-5.234,2.764-4.447c1.148,0.671-0.366,2.736-0.663,3.583c1.934,2.802-0.135,7.958,1.782,9.503
		c0.956,0.146,1.033-1.518,1.252-2.362c0.004-0.005,0.004-0.007,0.004-0.009c0-0.005,0.003-0.008,0.003-0.016
		c0.007-0.02,0.013-0.041,0.022-0.073c0.009-0.038,0.024-0.073,0.033-0.107c0-0.004,0.003-0.009,0.003-0.013
		c0.013-0.038,0.023-0.074,0.032-0.109c0.004-0.002,0.004-0.008,0.004-0.008C40.382,42.858,40.396,42.81,40.408,42.766
		 M40.505,42.45l-0.059,0.192C40.469,42.566,40.489,42.499,40.505,42.45 M41.581,43.393c-0.476,1.512-2.576,5.912-4.052,2.442
		c-1.011-2.367-0.268-5.021-1.101-7.398c-0.821,2.84-1.263,5.757-1.865,8.646c-0.308,1.471-0.827,3.77-2.551,4.187
		c-4.086,0.99-5.737-8.369-6.702-10.776c-0.051,1.143,0.51,6.724-1.565,6.769c-2.553,0.056-4.039-6.184-4.636-7.899
		c-1.494-4.278-2.426-8.714-3.783-13.036c-1.097-3.496-1.766-7.314,0.181-10.659c0.81-1.395,2.056-2.463,3.561-3.05
		c0.939-0.365,1.978-0.597,2.987-0.62c1.684-0.038,0.868-0.146,1.783-1.311c2.051-2.611,6.622-2.208,9.294-1.014
		c1.757,0.789,3.289,2.044,4.474,3.558c1.588-1.168,3.589-1.282,5.242-0.184c2.885,1.917,4.229,5.881,3.328,9.092
		c-1.056,3.77-1.391,7.825-2.314,11.608C43.087,36.929,42.564,40.267,41.581,43.393"/>
	<path fill="#D3ECF4" d="M36.441,14.34c-0.104-0.149-0.795,1.526-0.781,1.488c-1.404-0.932-2.924-1.391-4.627-1.223
		c-2.037,0.2-3.092,1.328-4.75-0.32c-1.134-1.12-2.367-2.034-0.475-3.215c1.126-0.703,2.585-0.693,3.876-0.651
		c0.013,0,0.029,0,0.046,0.004c0.042,0,0.083,0,0.131,0.001h0.019c1.653,0.065,3.222,0.826,4.51,1.827
		C35.163,12.848,35.86,13.552,36.441,14.34"/>
	<path fill="#DDF0FA" d="M29.685,10.418c-0.023,0-0.042,0-0.064-0.004C29.64,10.415,29.662,10.418,29.685,10.418"/>
	<path fill="#DDF0FA" d="M29.731,10.422c-0.017-0.004-0.033-0.004-0.046-0.004h0.019C29.714,10.422,29.724,10.422,29.731,10.422"/>
	<path fill="#D4ECF9" d="M40.295,43.146c-0.009,0.032-0.016,0.054-0.022,0.073L40.295,43.146z"/>
	<path fill="#DDF0FA" d="M29.862,10.424c-0.049-0.002-0.089-0.002-0.132-0.002c-0.007,0-0.017,0-0.026-0.004
		C29.756,10.422,29.808,10.422,29.862,10.424"/>
	<g>
		<g>
			<defs>
				<rect id="SVGID_1_" x="16.885" y="14.062" width="26.836" height="33.49"/>
			</defs>
			<clipPath id="SVGID_2_">
				<use xlink:href="#SVGID_1_"  overflow="visible"/>
			</clipPath>
			<path clip-path="url(#SVGID_2_)" fill="#F5F5F6" d="M42.835,16.614c1.326,2.443,1.146,5.605-0.417,7.891
				c-1.477,2.166-3.242,3.218-5.432,4.547c-0.377,0.279-0.76,0.62-0.545,1.024c0.478,0.821,2.344-0.528,2.825-0.826
				c1.707-1.048,2.128-1.294,3.504-2.764c-0.782,4.778-1.825,9.87-3.193,14.523c-0.007,0.028-0.017,0.054-0.023,0.087
				c-0.053,0.175-0.097,0.316-0.093,0.308c-0.01,0.03-0.018,0.06-0.027,0.09v0.002l-0.003,0.015v0.003
				c-0.003,0.007-0.003,0.009-0.003,0.009c-0.216,0.718-0.428,1.48-0.915,2.068c-1.409-2.165,0.041-6.085-1.757-8.697
				c0.276-0.787,1.685-2.711,0.616-3.337c-1.251-0.733-2.314,3.385-2.574,4.142c-0.726,2.112-1.124,4.203-1.442,6.392
				c-0.216,1.479-0.343,4.238-1.634,5.26c-1.528,1.217-2.662-3.393-2.954-4.15c-1.367-3.547-2.425-7.226-3.83-10.75
				c-0.254-0.633-0.775-2.836-1.857-2.208c-1.076,0.623,0.349,2.442,0.613,3.169c1.1,3.055,0.503,6.816,0.202,9.982
				c-1.991-2.778-2.748-6.241-3.731-9.457c-1.039-3.406-2.016-6.949-2.854-10.413c-0.671-2.766-0.802-6.069,1.559-8.093
				c2.485-2.135,4.904-1.622,7.055,0.504c-0.621,0-2.104-0.381-2.34,0.5c-0.387,1.443,2.22,1.001,2.885,0.97
				c2.509-0.113,4.841-1.821,7.298-0.582c1.792,0.904,3.574,2.566,5.705,1.542c0.764-0.368,1.027-1.193,0.448-1.884
				c-0.689-0.826-2.065-0.622-2.989-0.501C38.368,13.157,41.615,14.367,42.835,16.614"/>
		</g>
	</g>
	<g>
		<g>
			<defs>
				<rect id="SVGID_3_" x="18.203" y="17.278" width="21.681" height="27.058"/>
			</defs>
			<clipPath id="SVGID_4_">
				<use xlink:href="#SVGID_3_"  overflow="visible"/>
			</clipPath>
			<path clip-path="url(#SVGID_4_)" fill="#FFFFFF" d="M39.168,19.341c1.072,1.974,0.924,4.529-0.338,6.375
				c-1.193,1.75-2.618,2.6-4.388,3.674c-0.305,0.224-0.614,0.5-0.44,0.826c0.385,0.664,1.893-0.426,2.281-0.666
				c1.378-0.848,1.72-1.047,2.832-2.234c-0.631,3.858-1.476,7.976-2.581,11.735c-0.005,0.021-0.013,0.043-0.018,0.067
				c-0.043,0.143-0.078,0.26-0.076,0.252c-0.008,0.024-0.014,0.047-0.022,0.07v0.004l-0.002,0.009v0.005
				c-0.003,0.005-0.003,0.007-0.003,0.007c-0.174,0.579-0.346,1.198-0.739,1.669c-1.138-1.747,0.033-4.915-1.419-7.023
				c0.223-0.638,1.361-2.191,0.498-2.697c-1.012-0.593-1.869,2.736-2.079,3.346c-0.587,1.705-0.908,3.392-1.165,5.161
				c-0.174,1.197-0.277,3.425-1.32,4.249c-1.235,0.983-2.153-2.74-2.387-3.351c-1.105-2.866-1.96-5.84-3.094-8.687
				c-0.206-0.511-0.627-2.289-1.501-1.782c-0.869,0.505,0.282,1.973,0.496,2.559c0.889,2.471,0.406,5.508,0.164,8.067
				c-1.609-2.244-2.221-5.042-3.015-7.642c-0.839-2.752-1.628-5.615-2.307-8.413c-0.542-2.234-0.646-4.903,1.261-6.539
				c2.006-1.725,3.961-1.309,5.699,0.407c-0.501,0-1.7-0.308-1.892,0.403c-0.312,1.166,1.795,0.808,2.333,0.784
				c2.026-0.091,3.911-1.472,5.896-0.471c1.447,0.732,2.889,2.073,4.609,1.246c0.618-0.296,0.831-0.963,0.362-1.522
				c-0.556-0.667-1.667-0.501-2.416-0.404C35.557,16.548,38.183,17.525,39.168,19.341"/>
		</g>
	</g>
	<g>
		<g>
			<defs>
				<rect id="SVGID_5_" x="25.269" y="10.581" width="10.184" height="4.763"/>
			</defs>
			<clipPath id="SVGID_6_">
				<use xlink:href="#SVGID_5_"  overflow="visible"/>
			</clipPath>
			<path clip-path="url(#SVGID_6_)" fill="#F5F5F6" d="M35.453,14.037c-0.09-0.133-0.697,1.335-0.685,1.307
				c-1.229-0.82-2.562-1.221-4.057-1.076c-1.785,0.179-2.711,1.163-4.167-0.281c-0.992-0.981-2.076-1.782-0.417-2.821
				c0.949-0.593,2.167-0.609,3.266-0.574c0.039,0,0.079,0.003,0.117,0.003c0.048,0.002,0.106,0.002,0.174,0.006
				c1.456,0.051,2.837,0.723,3.97,1.601C34.333,12.729,34.946,13.345,35.453,14.037"/>
		</g>
	</g>
	<path fill="#52B3D1" d="M43.697,27.069c-1.478,1.582-1.934,1.847-3.765,2.972c-0.516,0.321-2.521,1.766-3.034,0.889
		c-0.229-0.436,0.182-0.804,0.585-1.1c2.352-1.428,4.248-2.56,5.836-4.884c1.674-2.458,1.872-5.854,0.447-8.477
		c-1.31-2.416-4.799-3.717-6.344-0.686c0.994-0.125,2.475-0.349,3.215,0.536c0.619,0.747,0.339,1.631-0.485,2.029
		c-2.292,1.097-4.203-0.689-6.126-1.661c-2.637-1.329-5.149,0.507-7.838,0.629c-0.715,0.034-3.519,0.505-3.098-1.042
		c0.252-0.946,1.846-0.539,2.511-0.539c-2.311-2.279-4.91-2.834-7.579-0.542c-2.535,2.176-2.391,5.723-1.671,8.693
		c0.901,3.722,1.946,7.528,3.066,11.192c1.053,3.447,1.866,7.17,4.006,10.153c0.326-3.405,0.965-7.448-0.22-10.722
		c-0.28-0.782-1.814-2.736-0.659-3.405c1.166-0.677,1.728,1.694,1.995,2.37c1.511,3.785,2.647,7.739,4.116,11.548
		c0.314,0.813,1.531,5.766,3.173,4.462c1.386-1.102,1.523-4.063,1.755-5.652c0.343-2.353,0.769-4.598,1.55-6.863
		c0.282-0.814,1.42-5.235,2.763-4.448c1.15,0.671-0.643,2.941-0.244,3.743c1.191,2.419,0.502,9.367,1.471,9.182
		C39.883,45.301,42.858,32.201,43.697,27.069 M29.624,10.417c0.023,0.003,0.042,0.003,0.065,0.003
		c-1.292-0.042-2.75-0.051-3.877,0.652c-1.891,1.182-0.659,2.095,0.475,3.215c1.659,1.646,2.714,0.521,4.75,0.318
		c1.701-0.167,3.222,0.292,4.625,1.225c-0.013,0.039,0.679-1.637,0.782-1.489c-0.581-0.787-1.279-1.49-2.051-2.088
		c-1.287-1-2.855-1.763-4.508-1.827h-0.021c-0.055-0.004-0.106-0.004-0.158-0.007h-0.018C29.665,10.419,29.643,10.417,29.624,10.417
		 M30.414,10.446c-0.032,0-0.068-0.004-0.106-0.004C30.345,10.442,30.381,10.446,30.414,10.446 M42.851,13.047
		c2.885,1.917,4.229,5.881,3.328,9.093c-1.056,3.771-1.39,7.824-2.315,11.608c-0.773,3.183-1.3,6.517-2.285,9.644
		c-0.475,1.513-2.571,5.914-4.047,2.444c-1.01-2.365-0.267-5.023-1.101-7.399c-0.819,2.842-1.261,5.76-1.865,8.645
		c-0.306,1.473-0.826,3.772-2.549,4.188c-4.087,0.989-5.736-8.368-6.703-10.776c-0.051,1.143,0.51,6.723-1.564,6.77
		c-2.553,0.056-4.039-6.185-4.635-7.902c-1.496-4.276-2.428-8.713-3.783-13.035c-1.099-3.496-1.767-7.314,0.179-10.658
		c0.811-1.394,2.057-2.463,3.561-3.05c0.939-0.365,1.979-0.598,2.986-0.621c1.685-0.039,0.868-0.145,1.785-1.311
		c2.05-2.61,6.62-2.208,9.293-1.014c1.756,0.788,3.289,2.043,4.473,3.558C39.197,12.063,41.198,11.95,42.851,13.047"/>
	<path fill="#52B3D1" d="M29.865,10.427c-0.048-0.004-0.09-0.004-0.132-0.004c-0.006,0-0.016,0-0.026-0.003
		C29.759,10.423,29.81,10.423,29.865,10.427"/>
	<path fill="#52B3D1" d="M29.733,10.423c-0.017-0.003-0.032-0.003-0.046-0.003h0.02C29.716,10.423,29.727,10.423,29.733,10.423"/>
	<path fill="#52B3D1" d="M29.688,10.419c-0.023,0-0.042,0-0.065-0.003C29.643,10.417,29.665,10.419,29.688,10.419"/>
	<g>
		<path fill="#323144" d="M87.334,38.268h-8.34v-1.541l5.374-7.704H79.14V27.06h8.049v1.533l-5.366,7.711h5.512V38.268z"/>
		<path fill="#323144" d="M98.321,38.268L97.508,35.6h-4.086l-0.813,2.668h-2.561l3.956-11.253h2.905l3.971,11.253H98.321z
			 M96.941,33.606c-0.751-2.417-1.174-3.784-1.269-4.101c-0.095-0.317-0.163-0.567-0.203-0.751
			c-0.169,0.654-0.652,2.271-1.449,4.852H96.941z"/>
		<path fill="#323144" d="M113.83,38.268h-2.369v-4.837h-4.438v4.837h-2.376V27.06h2.376v4.393h4.438V27.06h2.369V38.268z"/>
		<path fill="#323144" d="M128.94,38.268h-3.021l-4.875-8.479h-0.069c0.097,1.498,0.146,2.565,0.146,3.204v5.274h-2.123V27.06h2.997
			l4.868,8.394h0.054c-0.077-1.456-0.115-2.486-0.115-3.089V27.06h2.139V38.268z"/>
		<path fill="#323144" d="M140.977,38.268l-0.813-2.668h-4.086l-0.813,2.668h-2.561l3.957-11.253h2.904l3.971,11.253H140.977z
			 M139.598,33.606c-0.752-2.417-1.174-3.784-1.27-4.101c-0.094-0.317-0.162-0.567-0.203-0.751c-0.168,0.654-0.65,2.271-1.449,4.852
			H139.598z"/>
		<path fill="#323144" d="M149.68,33.967v4.301h-2.377V27.06h3.266c1.523,0,2.65,0.277,3.381,0.832s1.096,1.396,1.096,2.526
			c0,0.659-0.182,1.246-0.545,1.759c-0.361,0.514-0.875,0.916-1.539,1.208c1.686,2.52,2.785,4.146,3.295,4.883h-2.637l-2.676-4.301
			H149.68z M149.68,32.035h0.766c0.752,0,1.307-0.125,1.664-0.375s0.537-0.644,0.537-1.181c0-0.531-0.184-0.909-0.549-1.134
			s-0.932-0.337-1.697-0.337h-0.721V32.035z"/>
		<path fill="#323144" d="M167.311,38.268h-8.34v-1.541l5.375-7.704h-5.229V27.06h8.049v1.533l-5.367,7.711h5.512V38.268z"/>
		<path fill="#323144" d="M175.76,38.268h-2.375v-9.229h-3.043V27.06h8.463v1.978h-3.045V38.268z"/>
		<path fill="#323144" d="M190.611,30.556c0,1.207-0.377,2.129-1.131,2.768s-1.826,0.958-3.217,0.958h-1.02v3.986h-2.377V27.06h3.58
			c1.359,0,2.395,0.293,3.102,0.878C190.256,28.523,190.611,29.396,190.611,30.556z M185.244,32.334h0.781
			c0.732,0,1.279-0.144,1.641-0.433c0.363-0.289,0.545-0.709,0.545-1.261c0-0.557-0.152-0.968-0.455-1.234
			c-0.305-0.266-0.781-0.398-1.43-0.398h-1.082V32.334z"/>
		<path fill="#323144" d="M197.457,33.967v4.301h-2.377V27.06h3.266c1.523,0,2.65,0.277,3.381,0.832s1.098,1.396,1.098,2.526
			c0,0.659-0.182,1.246-0.545,1.759c-0.363,0.514-0.877,0.916-1.541,1.208c1.686,2.52,2.785,4.146,3.297,4.883h-2.637l-2.676-4.301
			H197.457z M197.457,32.035h0.768c0.75,0,1.305-0.125,1.662-0.375s0.537-0.644,0.537-1.181c0-0.531-0.184-0.909-0.549-1.134
			s-0.93-0.337-1.697-0.337h-0.721V32.035z"/>
		<path fill="#323144" d="M214.645,38.268l-0.813-2.668h-4.086l-0.813,2.668h-2.561l3.955-11.253h2.906l3.971,11.253H214.645z
			 M213.266,33.606c-0.752-2.417-1.174-3.784-1.27-4.101c-0.094-0.317-0.162-0.567-0.203-0.751c-0.168,0.654-0.65,2.271-1.449,4.852
			H213.266z"/>
		<path fill="#323144" d="M230.031,38.268h-2.713l-2.607-4.239l-2.605,4.239h-2.545l3.717-5.78l-3.48-5.427h2.623l2.414,4.032
			l2.369-4.032h2.561l-3.52,5.558L230.031,38.268z"/>
		<path fill="#323144" d="M233.797,38.268V27.06h2.377v11.208H233.797z"/>
		<path fill="#323144" d="M247.949,35.155c0,1.012-0.363,1.81-1.092,2.392c-0.729,0.583-1.742,0.874-3.039,0.874
			c-1.197,0-2.254-0.225-3.174-0.675v-2.208c0.756,0.338,1.396,0.575,1.92,0.714c0.523,0.138,1.002,0.206,1.438,0.206
			c0.521,0,0.92-0.1,1.199-0.299s0.418-0.495,0.418-0.889c0-0.22-0.061-0.415-0.184-0.587c-0.123-0.171-0.303-0.336-0.541-0.494
			s-0.723-0.411-1.453-0.759c-0.684-0.322-1.197-0.631-1.541-0.928c-0.342-0.297-0.615-0.641-0.82-1.035
			c-0.203-0.394-0.307-0.854-0.307-1.38c0-0.992,0.336-1.771,1.01-2.338c0.672-0.567,1.6-0.851,2.785-0.851
			c0.584,0,1.139,0.069,1.668,0.207c0.529,0.138,1.082,0.332,1.66,0.583l-0.768,1.847c-0.598-0.245-1.092-0.417-1.482-0.514
			c-0.393-0.097-0.775-0.146-1.154-0.146c-0.449,0-0.795,0.105-1.035,0.314s-0.359,0.483-0.359,0.82
			c0,0.209,0.047,0.392,0.145,0.548c0.098,0.156,0.252,0.307,0.465,0.452c0.211,0.146,0.713,0.408,1.506,0.786
			c1.047,0.501,1.766,1.003,2.154,1.506C247.756,33.808,247.949,34.425,247.949,35.155z"/>
		<path fill="#323144" d="M269.684,38.268h-2.705l-1.518-5.888c-0.057-0.209-0.152-0.643-0.287-1.299
			c-0.137-0.657-0.215-1.098-0.234-1.322c-0.031,0.276-0.107,0.719-0.23,1.33c-0.123,0.611-0.217,1.046-0.283,1.307l-1.51,5.872
			h-2.699l-2.859-11.208h2.338l1.434,6.118c0.25,1.129,0.432,2.107,0.545,2.936c0.031-0.291,0.102-0.742,0.211-1.353
			c0.109-0.611,0.213-1.085,0.311-1.422l1.633-6.279h2.246l1.633,6.279c0.07,0.28,0.16,0.71,0.268,1.287
			c0.107,0.578,0.189,1.073,0.246,1.487c0.051-0.398,0.133-0.896,0.244-1.491c0.113-0.595,0.215-1.076,0.307-1.444l1.426-6.118
			h2.338L269.684,38.268z"/>
		<path fill="#323144" d="M282.756,38.268h-6.455V27.06h6.455v1.947h-4.078v2.461h3.795v1.947h-3.795v2.89h4.078V38.268z"/>
		<path fill="#323144" d="M296.732,32.557c0,1.845-0.525,3.258-1.576,4.239c-1.049,0.981-2.566,1.472-4.549,1.472h-3.174V27.06
			h3.518c1.83,0,3.252,0.483,4.264,1.449C296.227,29.475,296.732,30.824,296.732,32.557z M294.264,32.618
			c0-2.407-1.063-3.611-3.189-3.611h-1.264v7.297h1.02C293.119,36.305,294.264,35.076,294.264,32.618z"/>
		<path fill="#323144" d="M310.693,32.557c0,1.845-0.525,3.258-1.576,4.239c-1.049,0.981-2.566,1.472-4.549,1.472h-3.174V27.06
			h3.518c1.83,0,3.252,0.483,4.264,1.449C310.188,29.475,310.693,30.824,310.693,32.557z M308.225,32.618
			c0-2.407-1.063-3.611-3.189-3.611h-1.264v7.297h1.02C307.08,36.305,308.225,35.076,308.225,32.618z"/>
		<path fill="#323144" d="M315.354,38.268V27.06h2.377v11.208H315.354z"/>
		<path fill="#323144" d="M332.834,38.268h-3.02l-4.877-8.479h-0.068c0.098,1.498,0.146,2.565,0.146,3.204v5.274h-2.125V27.06h2.998
			l4.867,8.394h0.055c-0.076-1.456-0.115-2.486-0.115-3.089V27.06h2.139V38.268z"/>
		<path fill="#323144" d="M342.264,31.974h4.447v5.811c-0.721,0.235-1.4,0.4-2.035,0.495c-0.637,0.095-1.287,0.142-1.951,0.142
			c-1.691,0-2.984-0.497-3.875-1.491c-0.893-0.994-1.338-2.421-1.338-4.281c0-1.809,0.518-3.219,1.553-4.231
			c1.033-1.012,2.469-1.518,4.303-1.518c1.15,0,2.26,0.23,3.328,0.69l-0.789,1.901c-0.818-0.409-1.67-0.613-2.553-0.613
			c-1.027,0-1.852,0.345-2.469,1.035c-0.619,0.69-0.928,1.617-0.928,2.782c0,1.217,0.248,2.146,0.748,2.787
			c0.498,0.641,1.223,0.962,2.172,0.962c0.496,0,1-0.051,1.51-0.153v-2.338h-2.123V31.974z"/>
	</g>
</g>
</svg>
