<?xml version="1.0" encoding="iso-8859-1"?>
<!-- Generator: Adobe Illustrator 19.0.0, SVG Export Plug-In . SVG Version: 6.00 Build 0)  -->
<svg xmlns="http://www.w3.org/2000/svg" xmlns:xlink="http://www.w3.org/1999/xlink" version="1.1" id="Layer_1" x="0px" y="0px" viewBox="0 0 460 460" style="enable-background:new 0 0 460 460;" xml:space="preserve" width="512" height="512">
<rect id="XMLID_1495_" y="76.67" style="fill:#D80027;" width="460" height="306.66"/>
<g id="XMLID_942_">
	<polygon id="XMLID_1940_" style="fill:#F0F0F0;" points="223.722,201.961 236.303,219.298 256.677,212.691 244.077,230.012    256.656,247.349 236.288,240.717 223.688,258.039 223.701,236.62 203.333,229.988 223.708,223.382  "/>
	<path id="XMLID_944_" style="fill:#F0F0F0;" d="M189.387,273.333c-23.932,0-43.333-19.401-43.333-43.333   s19.401-43.333,43.333-43.333c7.462,0,14.483,1.887,20.613,5.208c-9.616-9.404-22.767-15.208-37.28-15.208   c-29.455,0-53.333,23.878-53.333,53.333s23.878,53.333,53.333,53.333c14.512,0,27.663-5.804,37.28-15.208   C203.87,271.446,196.849,273.333,189.387,273.333z"/>
</g>















</svg>
